<?xml version="1.0" ?><svg data-name="Layer 5" id="Layer_5" viewBox="0 0 32 32" xmlns="http://www.w3.org/2000/svg"><defs><style>.cls-1{fill:#ffbbbc;}.cls-2{fill:#f41870;}.cls-3{fill:#361041;}</style></defs><polygon class="cls-1" points="8.28 19.93 7.33 22.07 10.59 27.73 13.85 24.51 13.99 20.4 11.16 19.57 8.28 19.93"/><polygon class="cls-1" points="20.04 19.91 18.39 22.1 20.89 26.07 22.9 27.54 26.2 21.56 24.08 19.7 22.29 20.59 20.04 19.91"/><polygon class="cls-2" points="19.16 5.91 18.26 8.73 21.88 14.21 25.57 10.27 26.43 6.94 23.56 5.44 19.16 5.91"/><path class="cls-3" d="M25.22,3.79a3,3,0,0,0-2.6,1.26c-1-2.45-4.07-1.19-5.12.5A6.73,6.73,0,0,0,17.74,12c.92,1.56,2.05,3.58,3.73,4.4.9.44,1.47,0,2.07-.71a17.54,17.54,0,0,0,1.86-2.81c1.08-1.86,2.72-4.26,2.49-6.5A3,3,0,0,0,25.22,3.79Zm.2,4.29c-.32,1.87-1.86,3.26-2.93,4.75A17.36,17.36,0,0,1,21,10.76a6.47,6.47,0,0,1-1.07-1.85c-.25-.84-.13-2.11,1-2.07.85,0,1.3,1.12,1.59,1.78.16,0,.41-.66.53-.83a2.67,2.67,0,0,1,.91-1C24.9,6.25,25.49,7.23,25.42,8.08Z"/><path class="cls-3" d="M22.56,18.89c-.1-1.38-1.95-1.76-3-1.52a3.53,3.53,0,0,0-2.61,3.13c-.48,3.08,1.9,6.4,4.16,8.1a5.23,5.23,0,0,0,.63.41c.83.42,1.47.61,2.21-.06a6.74,6.74,0,0,0,1.1-1.5,21.57,21.57,0,0,0,2.24-4.7c.46-1.49,1-3.45-.18-4.78C25.76,16.44,23.44,17.33,22.56,18.89Zm1.81,4.62-.67,1.12c-.34.59-.69,1.21-1.08,1.78A7.37,7.37,0,0,1,21.21,25c-.6-.7-1.71-2.16-1.5-3.37A1,1,0,0,1,21.13,21c.63.27,1,1.19,1.24,1.77.33-.71,1.19-2.25,2.21-1.71S24.37,23.51,24.37,23.51Z"/><path class="cls-3" d="M14.49,27.4c1.71-1.87,1.88-5.59.66-7.74s-4.05-2.38-6.43-2.27c-1.12.05-2.47.19-2.83,1.45a7.38,7.38,0,0,0,0,2.61c.12,1.3.25,2.62.29,3.93a14.25,14.25,0,0,0,.14,2.16A1.63,1.63,0,0,0,7.67,29C9.84,29.54,13,29.09,14.49,27.4Zm-6.2-5.53A1.25,1.25,0,0,1,9.4,20.78c1.26.11,1.5,1.72,1.52,1.72.11-.72.83-1.95,1.66-1.85s.88,1,.85,1.58a4.79,4.79,0,0,1-1,2.3,12,12,0,0,1-1.51,1.63C9.84,25.12,8.14,23.51,8.29,21.87Z"/><path class="cls-3" d="M14.16,8.49c1.68-.07,2.13-1.93,1.53-3.32-.5-1.14-2.56-1-3.61-1a30.92,30.92,0,0,0-4,.09,23.48,23.48,0,0,0-2.78.21A1.66,1.66,0,0,0,4.18,6.18a2.06,2.06,0,0,0,.49,1.71A3.21,3.21,0,0,0,7,8.41a1.6,1.6,0,0,1,1.08.21c.47.4.34,1.37.34,1.9,0,1.22,0,2.43-.07,3.65a2.17,2.17,0,0,0,.71,2,2.7,2.7,0,0,0,2.12.24c1.65-.47,1.22-3.58,1.22-4.86,0-.53,0-1.05,0-1.58,0-.33-.14-.94,0-1.23C12.73,8.33,13.69,8.51,14.16,8.49Z"/></svg>